# xmcd
#
# Track frame offsets:
#	150
#	12067
#	26957
#	44927
#	62857
#	80702
#	96497
#	108892
#	122940
#	137522
#	152352
#	165655
#	178585
#	195680
#	211295
#	226832
#	246207
#	264172
#	280390
#
# Disc length: 3924 seconds
#
# Revision: 0
# Processed by: cddbd v1.4PL0 Copyright (c) Steve Scherf et al.
# Submitted via: EasyCDDAExtractor 4.6.9.1
#
DISCID=0d0f5213
DTITLE=Crystal Gayle - The Best Of Crystal Gayle
DYEAR=2002
DGENRE=Country
TTITLE0=Don't It Make My Brown Eyes Blue
TTITLE1=If You Ever Changed Your Mind
TTITLE2=You And I
TTITLE3='Til I Gain Control Again
TTITLE4=Our Love Is On The Faultline
TTITLE5=Deeper In The Fire
TTITLE6=Baby, What About You
TTITLE7=Everything I Own
TTITLE8=The Sound Of Goodbye
TTITLE9=I Don't Wanna Lose Your Love
TTITLE10=Turning Away
TTITLE11=Me Against The Night
TTITLE12=Nobody Wants To Be Alone
TTITLE13=Long And Lasting Love, A
TTITLE14=Makin' Up For Lost Time
TTITLE15=Cry
TTITLE16=Straight To The Heart
TTITLE17=Another World
TTITLE18=Where Dear Friends Never Part
EXTD=
EXTT0=
EXTT1=
EXTT2=
EXTT3=
EXTT4=
EXTT5=
EXTT6=
EXTT7=
EXTT8=
EXTT9=
EXTT10=
EXTT11=
EXTT12=
EXTT13=
EXTT14=
EXTT15=
EXTT16=
EXTT17=
EXTT18=
PLAYORDER=
